<svg width="24" height="24" viewBox="0 0 24 24" fill="none" xmlns="http://www.w3.org/2000/svg">
<path fill-rule="evenodd" clip-rule="evenodd" d="M0 9.8887C0 9.8887 0.201398 5.72994 3.62518 2.83422C7.04896 -0.0615088 11.9832 0.000102644 11.9832 0.000102644L22.8333 0.0320315C23.3672 0.046875 23.4609 0.0492117 23.7188 0.28125C23.9766 0.513288 23.9531 0.65625 24 0.961532C24 0.961532 24 9.61257 24 9.73467C24 9.85677 23.8657 14.1399 20.4755 17.1896C17.0853 20.2394 12.3189 20.2702 12.3189 20.2702H8.4147C7.54197 20.2702 6.38363 20.4052 5.61635 20.8885C4.84907 21.3718 4.54218 22.1516 4.54218 22.1516C4.54218 22.1516 3.82032 24 2.11763 24C0.414949 24 -1.63899e-05 22.3672 8.19493e-06 22.1516V20.2702L0 9.8887Z" fill="#B4D088"/>
<path d="M9.142 8.62567C13.9118 4.43611 18.6749 4.09724 18.6749 4.09724C18.6749 4.09724 13.5056 6.86975 10.384 9.73467C7.26228 12.5996 3.87207 16.8816 3.87207 16.8816C3.87207 16.8816 4.37221 12.8152 9.142 8.62567Z" fill="#213600"/>
</svg>
